<svg width="67" height="21" viewBox="0 0 67 21" fill="none" xmlns="http://www.w3.org/2000/svg">
<path fill-rule="evenodd" clip-rule="evenodd" d="M33.5 -0.000976562C39.299 -0.000976562 44 4.70002 44 10.4991C44 16.2982 39.299 20.9992 33.5 20.9992C27.701 20.9992 23 16.2982 23 10.4991C23 4.70002 27.701 -0.000976562 33.5 -0.000976562ZM60.5 3.99937C64.0898 3.99937 67 6.90937 67 10.4991C67 14.0893 64.0898 16.9996 60.5 16.9996C56.9101 16.9996 54 14.0893 54 10.4991C54 6.90937 56.9101 3.99937 60.5 3.99937ZM13.0001 10.4991C13.0001 6.90937 10.0899 3.99937 6.50006 3.99937C2.91011 3.99937 0 6.90937 0 10.4991C0 14.0893 2.91011 16.9996 6.50006 16.9996C10.0899 16.9996 13.0001 14.0893 13.0001 10.4991Z" fill="#F2F5F4"/>
</svg>
