<svg width="20" height="18" viewBox="0 0 20 18" fill="none" xmlns="http://www.w3.org/2000/svg">
<path d="M19.455 1.01638C18.6376 1.50684 17.7657 1.83381 16.8392 2.0518C16.0763 1.23436 15.0409 0.743896 13.842 0.743896C11.5531 0.743896 9.75477 2.65125 9.75477 4.94008C9.75477 5.26706 9.80926 5.59403 9.86376 5.92101C6.43052 5.70302 3.43324 4.01365 1.41689 1.45234C1.08992 2.0518 0.871935 2.81474 0.871935 3.57768C0.871935 5.04907 1.58038 6.30248 2.7248 7.06542C2.07084 7.06542 1.41689 6.84744 0.871935 6.52046V6.62946C0.871935 8.6458 2.28883 10.3897 4.14169 10.7711C3.81471 10.8801 3.43324 10.9346 3.05177 10.9346C2.77929 10.9346 2.50681 10.9346 2.28883 10.8801C2.83379 12.5695 4.30518 13.7684 6.10354 13.8229C4.68665 14.9673 2.94278 15.6213 0.980926 15.6213C0.653951 15.6213 0.326975 15.6213 0 15.5668C1.79837 16.7657 3.9782 17.4741 6.26703 17.4741C13.842 17.4741 17.9292 11.0436 17.9292 5.48504C17.9292 5.32155 17.9292 5.10357 17.9292 4.94008C18.7466 4.34063 19.455 3.63218 20 2.76025C19.2916 3.08722 18.4741 3.3052 17.6567 3.4142C18.4741 2.81474 19.1281 1.9973 19.455 1.01638Z" fill="#B3B3B3"/>
</svg>
