<svg width="13" height="15" viewBox="0 0 13 15" fill="none" xmlns="http://www.w3.org/2000/svg">
<path d="M12.669 13.1546C12.4344 13.6558 11.9652 13.9064 11.4959 14.1569C10.9094 14.5328 10.4402 14.6581 9.85367 14.6581C9.03253 14.6581 8.21139 14.2822 7.50756 14.0316C6.92103 13.7811 6.45181 13.5305 5.86528 13.2799C4.223 12.1522 2.34611 10.1475 1.40767 8.51869C1.05575 7.89222 0.821139 7.39104 0.586528 6.76457C0.351917 5.88751 0 5.13574 0 4.13339C0 3.50691 0.117306 2.88044 0.469222 2.25397C0.703833 1.75279 0.938445 1.25162 1.40767 1.00103C1.75958 1.00103 2.34611 0.875732 2.69803 0.875732C2.81533 0.875732 2.81533 0.875732 2.93264 0.875732C3.16725 1.00103 3.28456 1.37691 3.40186 1.6275C3.63647 2.25397 3.98839 2.75515 4.223 3.38162C4.45761 3.63221 4.69222 3.8828 4.69222 4.13339C4.69222 4.75986 3.04994 5.63692 3.04994 6.1381C3.04994 6.38869 3.28456 6.76457 3.40186 7.01516C4.34031 8.76928 5.51336 10.0222 7.15564 11.0246C7.39025 11.1499 7.74217 11.4005 7.97678 11.4005C8.446 11.4005 9.26714 9.64634 9.85367 9.64634C10.0883 9.64634 10.3229 9.89693 10.5575 10.1475C11.0267 10.5234 11.6133 10.774 12.0825 11.1499C12.3171 11.2752 12.669 11.4005 12.7863 11.6511C12.7863 11.7763 12.7863 11.7763 12.7863 11.9016C12.9036 12.1522 12.7863 12.7787 12.669 13.1546Z" fill="white"/>
</svg>
