<svg width="12" height="12" viewBox="0 0 12 12" fill="none" xmlns="http://www.w3.org/2000/svg">
<path d="M11.9742 9.29781C11.9403 9.19554 11.7244 9.04488 11.3266 8.84619C11.2188 8.78357 11.0653 8.69846 10.8666 8.59049C10.6677 8.48252 10.4872 8.38303 10.3254 8.2921C10.1632 8.20121 10.0113 8.11314 9.86937 8.02804C9.84668 8.011 9.77567 7.96135 9.65635 7.87879C9.53692 7.79646 9.4362 7.73535 9.35366 7.6955C9.27131 7.65589 9.19029 7.63595 9.11074 7.63595C8.99713 7.63595 8.85521 7.71696 8.68483 7.87879C8.51444 8.04082 8.35814 8.21682 8.21617 8.40733C8.07417 8.59775 7.92357 8.77375 7.76464 8.93569C7.60548 9.09769 7.4747 9.17861 7.37255 9.17861C7.32127 9.17861 7.25733 9.16432 7.1807 9.13611C7.1041 9.10772 7.04583 9.08339 7.00583 9.06378C6.96619 9.04375 6.89816 9.00411 6.8015 8.94425C6.70467 8.88458 6.65082 8.8519 6.63947 8.84619C5.86111 8.41428 5.19356 7.91995 4.63669 7.36332C4.08 6.80636 3.58561 6.13887 3.15382 5.36041C3.14814 5.34904 3.1154 5.29504 3.05579 5.1985C2.99608 5.10188 2.95629 5.03379 2.93641 4.99391C2.91653 4.95417 2.89238 4.89591 2.86402 4.81922C2.83567 4.74253 2.82143 4.67865 2.82143 4.62746C2.82143 4.52525 2.90241 4.3945 3.06435 4.23539C3.22626 4.07638 3.40244 3.92575 3.59271 3.78381C3.78313 3.64187 3.95913 3.48557 4.1211 3.31518C4.28302 3.1447 4.36397 3.00273 4.36397 2.88912C4.36397 2.80963 4.34409 2.72858 4.30436 2.64622C4.2646 2.56368 4.20352 2.46297 4.1211 2.34359C4.03866 2.22428 3.98895 2.15332 3.97188 2.13049C3.88674 1.98855 3.79877 1.83658 3.70776 1.67464C3.61674 1.51272 3.5174 1.33225 3.4094 1.13341C3.30149 0.934661 3.21632 0.781198 3.15376 0.673257C2.95501 0.275613 2.80447 0.0596122 2.70217 0.0256419C2.66238 0.00859706 2.60268 0 2.52322 0C2.36972 0 2.16948 0.0283583 1.92235 0.0852542C1.67512 0.14206 1.48058 0.201643 1.33852 0.26424C1.05443 0.383494 0.753327 0.730063 0.435117 1.30383C0.145355 1.8378 0.000488281 2.36631 0.000488281 2.88897C0.000488281 3.04225 0.0104286 3.19139 0.0303093 3.3364C0.05019 3.48127 0.0857125 3.64465 0.136907 3.8265C0.188012 4.00829 0.229236 4.14333 0.2604 4.23127C0.291594 4.31928 0.349833 4.47692 0.435087 4.70426C0.520222 4.93155 0.571416 5.07068 0.588461 5.12182C0.787298 5.67866 1.02309 6.17576 1.29578 6.61329C1.74444 7.34051 2.35671 8.09207 3.13223 8.86766C3.90779 9.64318 4.6592 10.2554 5.38648 10.7043C5.82395 10.9769 6.32123 11.2127 6.87798 11.4117C6.92915 11.4286 7.06828 11.4797 7.29548 11.5651C7.52276 11.6503 7.68046 11.7086 7.76846 11.7398C7.85649 11.7711 7.99157 11.8124 8.17321 11.8636C8.35524 11.9147 8.51847 11.9503 8.66333 11.9703C8.80829 11.9899 8.95745 12 9.11077 12C9.6334 12 10.1619 11.8551 10.696 11.5653C11.2697 11.2473 11.6162 10.9461 11.7355 10.6618C11.7982 10.5199 11.8577 10.3253 11.9145 10.0781C11.9715 9.83095 11.9998 9.63073 11.9998 9.47727C11.9999 9.39748 11.9914 9.33793 11.9742 9.29781Z" fill="#292929"/>
</svg>
