<svg width="35" height="35" viewBox="0 0 35 35" fill="none" xmlns="http://www.w3.org/2000/svg">
<path d="M34.5484 0.451485C34.3352 0.238109 34.0378 0.130336 33.7376 0.158109C33.6123 0.169489 30.6208 0.453991 26.5182 1.83105C13.1663 5.94319 4.32971 18.8899 0.22062 28.2558C-0.0380269 28.8742 0.484552 29.7021 1.26673 29.6337L5.80532 29.1921L5.36383 33.7304C5.31546 34.3827 5.9488 35.0698 6.74181 34.7764C23.0466 27.3472 32.9919 15.9759 34.8419 1.26225C34.8693 0.961827 34.7618 0.664726 34.5484 0.451485ZM21.4105 22.7881C19.6089 24.4277 17.8329 25.8371 16.1913 27.0244V9.7211C17.9122 8.31079 19.6957 7.1677 21.4105 6.24483V22.7881ZM11.4935 30.0991C9.88013 31.047 8.51827 31.7389 7.55508 32.1955L7.94773 28.1597C8.00599 27.6346 7.52019 26.9703 6.83794 27.05L2.80337 27.4424C4.16638 24.5506 7.8373 17.8176 14.159 11.5514V28.4322C13.1848 29.0781 12.286 29.6335 11.4935 30.0991ZM31.2231 7.89081C30.0298 11.4275 27.7122 16.5335 23.4428 20.8442V5.23247C26.2239 3.88929 30.4729 2.6853 32.6337 2.36605C32.4266 3.57952 32.0109 5.55613 31.2231 7.89081Z" fill="white"/>
</svg>
